<svg xmlns="http://www.w3.org/2000/svg" xmlns:xlink="http://www.w3.org/1999/xlink" width="2250" zoomAndPan="magnify" viewBox="0 0 1687.5 412.499988" height="550" preserveAspectRatio="xMidYMid meet" version="1.0"><defs><filter x="0%" y="0%" width="100%" height="100%" id="421f57d8fa"><feColorMatrix values="0 0 0 0 1 0 0 0 0 1 0 0 0 0 1 0 0 0 1 0" color-interpolation-filters="sRGB"/></filter><g/><clipPath id="cbd5c7a7e0"><path d="M 1 0.1875 L 1686.230469 0.1875 L 1686.230469 316 L 1 316 Z M 1 0.1875 " clip-rule="nonzero"/></clipPath><clipPath id="e22d12bd39"><path d="M 1 0.1875 L 545 0.1875 L 545 412 L 1 412 Z M 1 0.1875 " clip-rule="nonzero"/></clipPath><clipPath id="3b06b97caa"><path d="M 0.773438 0.1875 L 444 0.1875 L 444 227 L 0.773438 227 Z M 0.773438 0.1875 " clip-rule="nonzero"/></clipPath><mask id="d80793c8e3"><g filter="url(#421f57d8fa)"><rect x="-168.75" width="2025" fill="#000000" y="-41.249999" height="494.999985" fill-opacity="0.498"/></g></mask><clipPath id="69bf8222e9"><path d="M 1 0.1875 L 441 0.1875 L 441 224 L 1 224 Z M 1 0.1875 " clip-rule="nonzero"/></clipPath><clipPath id="edacd0bc69"><rect x="0" width="444" y="0" height="227"/></clipPath><clipPath id="4a18bdb378"><path d="M 1267 0.1875 L 1686.230469 0.1875 L 1686.230469 240 L 1267 240 Z M 1267 0.1875 " clip-rule="nonzero"/></clipPath><clipPath id="3e49088dc2"><path d="M 1136 0.1875 L 1573 0.1875 L 1573 107 L 1136 107 Z M 1136 0.1875 " clip-rule="nonzero"/></clipPath><mask id="56893d7a1e"><g filter="url(#421f57d8fa)"><rect x="-168.75" width="2025" fill="#000000" y="-41.249999" height="494.999985" fill-opacity="0.498"/></g></mask><clipPath id="ed7f9b855e"><path d="M 2 0.1875 L 436 0.1875 L 436 106.429688 L 2 106.429688 Z M 2 0.1875 " clip-rule="nonzero"/></clipPath><clipPath id="1dc82452a9"><rect x="0" width="437" y="0" height="107"/></clipPath><clipPath id="f906f56680"><path d="M 1572 132 L 1686.230469 132 L 1686.230469 364 L 1572 364 Z M 1572 132 " clip-rule="nonzero"/></clipPath><mask id="7a8d80b4b9"><g filter="url(#421f57d8fa)"><rect x="-168.75" width="2025" fill="#000000" y="-41.249999" height="494.999985" fill-opacity="0.498"/></g></mask><clipPath id="2cb4067f36"><path d="M 0.0664062 3 L 114.230469 3 L 114.230469 231.398438 L 0.0664062 231.398438 Z M 0.0664062 3 " clip-rule="nonzero"/></clipPath><clipPath id="d6f8b3babe"><rect x="0" width="115" y="0" height="232"/></clipPath></defs><g clip-path="url(#cbd5c7a7e0)"><path fill="#26dfd0" d="M 1686.238281 0.128906 L 1686.238281 227.105469 C 1686.238281 227.105469 1527.269531 318.535156 1325.683594 283.089844 C 1124.09375 247.648438 1042.125 200.984375 907.652344 193.53125 C 773.183594 186.082031 605.238281 237.742188 534.292969 266.960938 C 463.34375 296.179688 363.542969 345.855469 151.519531 291.242188 C 83.699219 273.710938 17.046875 279.964844 1.261719 284.960938 L 1.261719 0.128906 Z M 1686.238281 0.128906 " fill-opacity="1" fill-rule="nonzero"/></g><g clip-path="url(#e22d12bd39)"><path fill="#e50191" d="M 1.40625 0.128906 L 1.40625 413.058594 C 1.40625 413.058594 155.171875 405.023438 194.605469 164.3125 C 205.804688 95.910156 211.648438 50.589844 275.464844 47.433594 C 300.371094 46.179688 465.859375 78.523438 544.40625 0.15625 Z M 1.40625 0.128906 " fill-opacity="1" fill-rule="nonzero"/></g><g clip-path="url(#3b06b97caa)"><g mask="url(#d80793c8e3)"><g transform="matrix(1, 0, 0, 1, 0.000000000000000111, 0)"><g clip-path="url(#edacd0bc69)"><g clip-path="url(#69bf8222e9)"><path fill="#f62aa0" d="M 1.40625 0.128906 L 1.40625 94.566406 C 1.40625 94.566406 76.332031 245.863281 226.9375 220.210938 C 307.53125 206.535156 388.710938 102.046875 440.980469 0.0703125 Z M 1.40625 0.128906 " fill-opacity="1" fill-rule="nonzero"/></g></g></g></g></g><g clip-path="url(#4a18bdb378)"><path fill="#e50191" d="M 1686.238281 0.128906 L 1686.238281 173.019531 C 1686.238281 173.019531 1507.917969 307.695312 1356.816406 192.917969 C 1242.632812 106.226562 1270.929688 0.0703125 1270.929688 0.0703125 Z M 1686.238281 0.128906 " fill-opacity="1" fill-rule="nonzero"/></g><g clip-path="url(#3e49088dc2)"><g mask="url(#56893d7a1e)"><g transform="matrix(1, 0, 0, 1, 1136, 0)"><g clip-path="url(#1dc82452a9)"><g clip-path="url(#ed7f9b855e)"><path fill="#f62aa0" d="M 435.148438 0.128906 L 2.125 0.128906 C 2.125 0.128906 205.875 238.824219 435.148438 0.128906 Z M 435.148438 0.128906 " fill-opacity="1" fill-rule="nonzero"/></g></g></g></g></g><g clip-path="url(#f906f56680)"><g mask="url(#7a8d80b4b9)"><g transform="matrix(1, 0, 0, 1, 1572, 132)"><g clip-path="url(#d6f8b3babe)"><g clip-path="url(#2cb4067f36)"><path fill="#f62aa0" d="M 114.238281 231.007812 L 114.238281 3.472656 C 112.375 3.472656 110.511719 3.515625 108.648438 3.601562 C 106.789062 3.691406 104.929688 3.824219 103.074219 4.003906 C 101.21875 4.183594 99.367188 4.410156 97.523438 4.679688 C 95.679688 4.953125 93.84375 5.269531 92.011719 5.628906 C 90.183594 5.988281 88.367188 6.394531 86.558594 6.84375 C 84.746094 7.296875 82.953125 7.789062 81.167969 8.328125 C 79.382812 8.867188 77.613281 9.449219 75.855469 10.074219 C 74.097656 10.699219 72.359375 11.367188 70.636719 12.078125 C 68.914062 12.789062 67.207031 13.542969 65.523438 14.335938 C 63.835938 15.132812 62.171875 15.96875 60.527344 16.84375 C 58.878906 17.71875 57.257812 18.636719 55.65625 19.59375 C 54.058594 20.546875 52.480469 21.542969 50.929688 22.578125 C 49.378906 23.609375 47.855469 24.679688 46.355469 25.789062 C 44.859375 26.898438 43.386719 28.042969 41.945312 29.222656 C 40.503906 30.402344 39.089844 31.617188 37.707031 32.867188 C 36.324219 34.117188 34.972656 35.402344 33.65625 36.714844 C 32.335938 38.03125 31.046875 39.378906 29.796875 40.761719 C 28.542969 42.140625 27.324219 43.546875 26.140625 44.988281 C 24.957031 46.425781 23.808594 47.894531 22.695312 49.390625 C 21.582031 50.886719 20.507812 52.40625 19.472656 53.957031 C 18.433594 55.503906 17.4375 57.078125 16.476562 58.675781 C 15.515625 60.273438 14.597656 61.890625 13.71875 63.535156 C 12.835938 65.175781 11.996094 66.839844 11.199219 68.523438 C 10.402344 70.207031 9.644531 71.910156 8.929688 73.632812 C 8.214844 75.351562 7.542969 77.089844 6.914062 78.84375 C 6.285156 80.597656 5.699219 82.367188 5.15625 84.148438 C 4.613281 85.929688 4.117188 87.726562 3.660156 89.535156 C 3.207031 91.339844 2.796875 93.15625 2.433594 94.984375 C 2.066406 96.8125 1.746094 98.648438 1.472656 100.492188 C 1.199219 102.332031 0.96875 104.183594 0.785156 106.035156 C 0.601562 107.890625 0.464844 109.75 0.371094 111.609375 C 0.277344 113.46875 0.230469 115.332031 0.230469 117.195312 C 0.234375 119.058594 0.28125 120.921875 0.375 122.78125 C 0.46875 124.644531 0.609375 126.5 0.792969 128.355469 C 0.976562 130.210938 1.207031 132.058594 1.484375 133.902344 C 1.761719 135.746094 2.082031 137.578125 2.445312 139.40625 C 2.8125 141.234375 3.222656 143.050781 3.675781 144.859375 C 4.132812 146.664062 4.632812 148.460938 5.175781 150.242188 C 5.71875 152.027344 6.304688 153.792969 6.933594 155.546875 C 7.5625 157.300781 8.234375 159.039062 8.953125 160.761719 C 9.667969 162.480469 10.421875 164.183594 11.222656 165.867188 C 12.019531 167.550781 12.859375 169.214844 13.742188 170.855469 C 14.621094 172.5 15.539062 174.121094 16.5 175.71875 C 17.460938 177.316406 18.457031 178.886719 19.496094 180.4375 C 20.53125 181.984375 21.605469 183.507812 22.71875 185.003906 C 23.832031 186.5 24.976562 187.96875 26.160156 189.40625 C 27.34375 190.847656 28.5625 192.257812 29.816406 193.636719 C 31.070312 195.015625 32.355469 196.363281 33.675781 197.679688 C 34.992188 198.996094 36.34375 200.28125 37.726562 201.53125 C 39.109375 202.78125 40.519531 204 41.960938 205.179688 C 43.402344 206.359375 44.875 207.507812 46.371094 208.617188 C 47.871094 209.726562 49.394531 210.796875 50.945312 211.832031 C 52.496094 212.867188 54.070312 213.863281 55.671875 214.820312 C 57.269531 215.777344 58.890625 216.695312 60.535156 217.570312 C 62.179688 218.449219 63.847656 219.285156 65.53125 220.082031 C 67.21875 220.878906 68.921875 221.632812 70.644531 222.347656 C 72.367188 223.058594 74.105469 223.726562 75.859375 224.355469 C 77.617188 224.984375 79.386719 225.566406 81.171875 226.105469 C 82.953125 226.648438 84.75 227.144531 86.558594 227.597656 C 88.367188 228.050781 90.1875 228.457031 92.015625 228.820312 C 93.84375 229.183594 95.679688 229.5 97.523438 229.773438 C 99.367188 230.046875 101.21875 230.277344 103.074219 230.457031 C 104.929688 230.640625 106.789062 230.777344 108.648438 230.871094 C 110.511719 230.960938 112.375 231.007812 114.238281 231.007812 Z M 114.238281 231.007812 " fill-opacity="1" fill-rule="nonzero"/></g></g></g></g></g><g fill="#f62aa0" fill-opacity="1"><g transform="translate(414.498117, 230.904866)"><g><path d="M 42.375 -65.109375 L 42.375 -52.09375 L 19.578125 -52.09375 L 19.578125 -39.140625 L 40.640625 -39.140625 L 40.640625 -26.125 L 19.578125 -26.125 L 19.578125 0 L 4.734375 0 L 4.734375 -65.109375 Z M 42.375 -65.109375 "/></g></g></g><g fill="#f62aa0" fill-opacity="1"><g transform="translate(462.878541, 230.904866)"><g><path d="M 19.578125 -65.109375 L 19.578125 0 L 4.734375 0 L 4.734375 -65.109375 Z M 19.578125 -65.109375 "/></g></g></g><g fill="#f62aa0" fill-opacity="1"><g transform="translate(490.817707, 230.904866)"><g><path d="M 19.578125 -65.109375 L 19.578125 -13.015625 L 41.984375 -13.015625 L 41.984375 0 L 4.734375 0 L 4.734375 -65.109375 Z M 19.578125 -65.109375 "/></g></g></g><g fill="#f62aa0" fill-opacity="1"><g transform="translate(539.040279, 230.904866)"><g><path d="M 19.578125 -65.109375 L 19.578125 0 L 4.734375 0 L 4.734375 -65.109375 Z M 19.578125 -65.109375 "/></g></g></g><g fill="#f62aa0" fill-opacity="1"><g transform="translate(566.979444, 230.904866)"><g><path d="M 4.734375 -65.109375 L 28.484375 -65.109375 C 35.117188 -65.109375 40.488281 -63.394531 44.59375 -59.96875 C 48.695312 -56.550781 50.75 -51.582031 50.75 -45.0625 C 50.75 -38.539062 48.671875 -33.425781 44.515625 -29.71875 C 40.359375 -26.007812 35.015625 -24.15625 28.484375 -24.15625 L 19.578125 -24.15625 L 19.578125 0 L 4.734375 0 Z M 19.578125 -35.984375 L 23.75 -35.984375 C 27.070312 -35.984375 29.796875 -36.65625 31.921875 -38 C 34.054688 -39.34375 35.125 -41.539062 35.125 -44.59375 C 35.125 -47.695312 34.054688 -49.914062 31.921875 -51.25 C 29.796875 -52.59375 27.070312 -53.265625 23.75 -53.265625 L 19.578125 -53.265625 Z M 19.578125 -35.984375 "/></g></g></g><g fill="#f62aa0" fill-opacity="1"><g transform="translate(623.17332, 230.904866)"><g><path d="M 19.578125 -26.125 L 19.578125 0 L 4.734375 0 L 4.734375 -65.109375 L 19.578125 -65.109375 L 19.578125 -39.140625 L 40.5625 -39.140625 L 40.5625 -65.109375 L 55.40625 -65.109375 L 55.40625 0 L 40.5625 0 L 40.5625 -26.125 Z M 19.578125 -26.125 "/></g></g></g><g fill="#f62aa0" fill-opacity="1"><g transform="translate(686.943868, 230.904866)"><g/></g></g><g fill="#f62aa0" fill-opacity="1"><g transform="translate(712.120682, 230.904866)"><g><path d="M 28.734375 -66.296875 C 32.253906 -66.296875 35.695312 -65.78125 39.0625 -64.75 C 42.4375 -63.726562 44.9375 -62.71875 46.5625 -61.71875 L 48.9375 -60.140625 L 42.9375 -48.296875 C 42.457031 -48.617188 41.796875 -49.023438 40.953125 -49.515625 C 40.117188 -50.015625 38.539062 -50.6875 36.21875 -51.53125 C 33.90625 -52.375 31.75 -52.796875 29.75 -52.796875 C 27.28125 -52.796875 25.375 -52.269531 24.03125 -51.21875 C 22.6875 -50.164062 22.015625 -48.742188 22.015625 -46.953125 C 22.015625 -46.054688 22.328125 -45.226562 22.953125 -44.46875 C 23.585938 -43.707031 24.664062 -42.890625 26.1875 -42.015625 C 27.71875 -41.148438 29.0625 -40.453125 30.21875 -39.921875 C 31.382812 -39.398438 33.175781 -38.613281 35.59375 -37.5625 C 39.800781 -35.78125 43.390625 -33.347656 46.359375 -30.265625 C 49.335938 -27.191406 50.828125 -23.707031 50.828125 -19.8125 C 50.828125 -16.070312 50.15625 -12.804688 48.8125 -10.015625 C 47.46875 -7.234375 45.625 -5.050781 43.28125 -3.46875 C 40.945312 -1.894531 38.359375 -0.726562 35.515625 0.03125 C 32.671875 0.800781 29.59375 1.1875 26.28125 1.1875 C 23.4375 1.1875 20.644531 0.894531 17.90625 0.3125 C 15.175781 -0.257812 12.890625 -0.976562 11.046875 -1.84375 C 9.203125 -2.71875 7.539062 -3.578125 6.0625 -4.421875 C 4.59375 -5.265625 3.519531 -5.972656 2.84375 -6.546875 L 1.8125 -7.421875 L 9.234375 -19.890625 C 9.867188 -19.359375 10.738281 -18.6875 11.84375 -17.875 C 12.945312 -17.0625 14.90625 -15.96875 17.71875 -14.59375 C 20.53125 -13.226562 23.015625 -12.546875 25.171875 -12.546875 C 31.429688 -12.546875 34.5625 -14.675781 34.5625 -18.9375 C 34.5625 -19.832031 34.335938 -20.660156 33.890625 -21.421875 C 33.441406 -22.191406 32.648438 -22.957031 31.515625 -23.71875 C 30.390625 -24.476562 29.394531 -25.082031 28.53125 -25.53125 C 27.664062 -25.976562 26.242188 -26.660156 24.265625 -27.578125 C 22.296875 -28.503906 20.835938 -29.203125 19.890625 -29.671875 C 15.941406 -31.617188 12.890625 -34.050781 10.734375 -36.96875 C 8.578125 -39.894531 7.5 -43.039062 7.5 -46.40625 C 7.5 -52.25 9.65625 -57.023438 13.96875 -60.734375 C 18.28125 -64.441406 23.203125 -66.296875 28.734375 -66.296875 Z M 28.734375 -66.296875 "/></g></g></g><g fill="#f62aa0" fill-opacity="1"><g transform="translate(768.788116, 230.904866)"><g><path d="M 37.796875 -65.109375 L 64.078125 0 L 48.140625 0 L 43.328125 -13.015625 L 18.546875 -13.015625 L 13.734375 0 L -2.203125 0 L 24.078125 -65.109375 Z M 38.28125 -26.046875 L 31.015625 -44.984375 L 30.859375 -44.984375 L 23.59375 -26.046875 Z M 38.28125 -26.046875 "/></g></g></g><g fill="#f62aa0" fill-opacity="1"><g transform="translate(834.294997, 230.904866)"><g><path d="M 19.578125 -40.40625 L 19.578125 0 L 4.734375 0 L 4.734375 -65.109375 L 19.578125 -65.109375 L 45.453125 -24.703125 L 45.609375 -24.703125 L 45.609375 -65.109375 L 60.453125 -65.109375 L 60.453125 0 L 45.609375 0 L 19.734375 -40.40625 Z M 19.578125 -40.40625 "/></g></g></g><g fill="#f62aa0" fill-opacity="1"><g transform="translate(903.116669, 230.904866)"><g><path d="M 4.734375 -65.109375 L 23.59375 -65.109375 C 32.644531 -65.109375 40.378906 -62.015625 46.796875 -55.828125 C 53.210938 -49.648438 56.421875 -41.90625 56.421875 -32.59375 C 56.421875 -23.226562 53.222656 -15.453125 46.828125 -9.265625 C 40.441406 -3.085938 32.695312 0 23.59375 0 L 4.734375 0 Z M 19.578125 -13.265625 L 21.859375 -13.265625 C 27.273438 -13.265625 31.707031 -15.09375 35.15625 -18.75 C 38.601562 -22.40625 40.351562 -26.992188 40.40625 -32.515625 C 40.40625 -38.035156 38.679688 -42.640625 35.234375 -46.328125 C 31.785156 -50.015625 27.328125 -51.859375 21.859375 -51.859375 L 19.578125 -51.859375 Z M 19.578125 -13.265625 "/></g></g></g><g fill="#f62aa0" fill-opacity="1"><g transform="translate(964.993055, 230.904866)"><g><path d="M 28.734375 -66.296875 C 32.253906 -66.296875 35.695312 -65.78125 39.0625 -64.75 C 42.4375 -63.726562 44.9375 -62.71875 46.5625 -61.71875 L 48.9375 -60.140625 L 42.9375 -48.296875 C 42.457031 -48.617188 41.796875 -49.023438 40.953125 -49.515625 C 40.117188 -50.015625 38.539062 -50.6875 36.21875 -51.53125 C 33.90625 -52.375 31.75 -52.796875 29.75 -52.796875 C 27.28125 -52.796875 25.375 -52.269531 24.03125 -51.21875 C 22.6875 -50.164062 22.015625 -48.742188 22.015625 -46.953125 C 22.015625 -46.054688 22.328125 -45.226562 22.953125 -44.46875 C 23.585938 -43.707031 24.664062 -42.890625 26.1875 -42.015625 C 27.71875 -41.148438 29.0625 -40.453125 30.21875 -39.921875 C 31.382812 -39.398438 33.175781 -38.613281 35.59375 -37.5625 C 39.800781 -35.78125 43.390625 -33.347656 46.359375 -30.265625 C 49.335938 -27.191406 50.828125 -23.707031 50.828125 -19.8125 C 50.828125 -16.070312 50.15625 -12.804688 48.8125 -10.015625 C 47.46875 -7.234375 45.625 -5.050781 43.28125 -3.46875 C 40.945312 -1.894531 38.359375 -0.726562 35.515625 0.03125 C 32.671875 0.800781 29.59375 1.1875 26.28125 1.1875 C 23.4375 1.1875 20.644531 0.894531 17.90625 0.3125 C 15.175781 -0.257812 12.890625 -0.976562 11.046875 -1.84375 C 9.203125 -2.71875 7.539062 -3.578125 6.0625 -4.421875 C 4.59375 -5.265625 3.519531 -5.972656 2.84375 -6.546875 L 1.8125 -7.421875 L 9.234375 -19.890625 C 9.867188 -19.359375 10.738281 -18.6875 11.84375 -17.875 C 12.945312 -17.0625 14.90625 -15.96875 17.71875 -14.59375 C 20.53125 -13.226562 23.015625 -12.546875 25.171875 -12.546875 C 31.429688 -12.546875 34.5625 -14.675781 34.5625 -18.9375 C 34.5625 -19.832031 34.335938 -20.660156 33.890625 -21.421875 C 33.441406 -22.191406 32.648438 -22.957031 31.515625 -23.71875 C 30.390625 -24.476562 29.394531 -25.082031 28.53125 -25.53125 C 27.664062 -25.976562 26.242188 -26.660156 24.265625 -27.578125 C 22.296875 -28.503906 20.835938 -29.203125 19.890625 -29.671875 C 15.941406 -31.617188 12.890625 -34.050781 10.734375 -36.96875 C 8.578125 -39.894531 7.5 -43.039062 7.5 -46.40625 C 7.5 -52.25 9.65625 -57.023438 13.96875 -60.734375 C 18.28125 -64.441406 23.203125 -66.296875 28.734375 -66.296875 Z M 28.734375 -66.296875 "/></g></g></g><g fill="#f62aa0" fill-opacity="1"><g transform="translate(1021.660466, 230.904866)"><g><path d="M 0.625 -52.09375 L 0.625 -65.109375 L 46.40625 -65.109375 L 46.40625 -52.09375 L 30.9375 -52.09375 L 30.9375 0 L 16.09375 0 L 16.09375 -52.09375 Z M 0.625 -52.09375 "/></g></g></g><g fill="#f62aa0" fill-opacity="1"><g transform="translate(1072.329661, 230.904866)"><g><path d="M 4.734375 -65.109375 L 28.015625 -65.109375 C 34.273438 -65.109375 39.378906 -63.4375 43.328125 -60.09375 C 47.273438 -56.757812 49.25 -51.988281 49.25 -45.78125 C 49.25 -40.988281 48.050781 -36.972656 45.65625 -33.734375 C 43.257812 -30.503906 40.007812 -28.226562 35.90625 -26.90625 L 58.328125 0 L 39.453125 0 L 19.578125 -25.734375 L 19.578125 0 L 4.734375 0 Z M 19.578125 -36.21875 L 21.3125 -36.21875 C 22.675781 -36.21875 23.832031 -36.242188 24.78125 -36.296875 C 25.726562 -36.359375 26.804688 -36.546875 28.015625 -36.859375 C 29.222656 -37.171875 30.195312 -37.613281 30.9375 -38.1875 C 31.675781 -38.769531 32.304688 -39.613281 32.828125 -40.71875 C 33.359375 -41.820312 33.625 -43.160156 33.625 -44.734375 C 33.625 -46.316406 33.359375 -47.660156 32.828125 -48.765625 C 32.304688 -49.878906 31.675781 -50.722656 30.9375 -51.296875 C 30.195312 -51.878906 29.222656 -52.328125 28.015625 -52.640625 C 26.804688 -52.953125 25.726562 -53.132812 24.78125 -53.1875 C 23.832031 -53.238281 22.675781 -53.265625 21.3125 -53.265625 L 19.578125 -53.265625 Z M 19.578125 -36.21875 "/></g></g></g><g fill="#f62aa0" fill-opacity="1"><g transform="translate(1132.469738, 230.904866)"><g><path d="M 20.125 -84.90625 C 21.539062 -86.332031 23.25 -87.046875 25.25 -87.046875 C 27.25 -87.046875 28.957031 -86.332031 30.375 -84.90625 C 31.800781 -83.488281 32.515625 -81.78125 32.515625 -79.78125 C 32.515625 -77.789062 31.800781 -76.082031 30.375 -74.65625 C 28.957031 -73.238281 27.25 -72.53125 25.25 -72.53125 C 23.25 -72.53125 21.539062 -73.238281 20.125 -74.65625 C 18.707031 -76.082031 18 -77.789062 18 -79.78125 C 18 -81.78125 18.707031 -83.488281 20.125 -84.90625 Z M 38.828125 -84.90625 C 40.242188 -86.332031 41.953125 -87.046875 43.953125 -87.046875 C 45.953125 -87.046875 47.660156 -86.332031 49.078125 -84.90625 C 50.503906 -83.488281 51.21875 -81.78125 51.21875 -79.78125 C 51.21875 -77.789062 50.503906 -76.082031 49.078125 -74.65625 C 47.660156 -73.238281 45.953125 -72.53125 43.953125 -72.53125 C 41.953125 -72.53125 40.242188 -73.238281 38.828125 -74.65625 C 37.410156 -76.082031 36.703125 -77.789062 36.703125 -79.78125 C 36.703125 -81.78125 37.410156 -83.488281 38.828125 -84.90625 Z M 1.8125 -32.59375 C 1.8125 -42.007812 5.019531 -49.976562 11.4375 -56.5 C 17.863281 -63.03125 25.597656 -66.296875 34.640625 -66.296875 C 43.742188 -66.296875 51.476562 -63.046875 57.84375 -56.546875 C 64.21875 -50.046875 67.40625 -42.0625 67.40625 -32.59375 C 67.40625 -23.070312 64.269531 -15.0625 58 -8.5625 C 51.738281 -2.0625 43.953125 1.1875 34.640625 1.1875 C 25.117188 1.1875 17.265625 -2.035156 11.078125 -8.484375 C 4.898438 -14.929688 1.8125 -22.96875 1.8125 -32.59375 Z M 17.84375 -32.59375 C 17.84375 -29.175781 18.367188 -26.054688 19.421875 -23.234375 C 20.472656 -20.421875 22.3125 -18.039062 24.9375 -16.09375 C 27.570312 -14.15625 30.804688 -13.1875 34.640625 -13.1875 C 40.171875 -13.1875 44.34375 -15.078125 47.15625 -18.859375 C 49.96875 -22.648438 51.375 -27.226562 51.375 -32.59375 C 51.375 -37.90625 49.941406 -42.46875 47.078125 -46.28125 C 44.210938 -50.101562 40.066406 -52.015625 34.640625 -52.015625 C 29.273438 -52.015625 25.132812 -50.101562 22.21875 -46.28125 C 19.300781 -42.46875 17.84375 -37.90625 17.84375 -32.59375 Z M 17.84375 -32.59375 "/></g></g></g><g fill="#f62aa0" fill-opacity="1"><g transform="translate(1205.316502, 230.904866)"><g><path d="M 58.5625 0 L 55.484375 -38.59375 L 55.09375 -38.59375 L 41.75 -0.390625 L 32.90625 -0.390625 L 19.578125 -38.59375 L 19.171875 -38.59375 L 16.09375 0 L 1.265625 0 L 7.109375 -65.109375 L 22.890625 -65.109375 L 37.328125 -27.546875 L 51.765625 -65.109375 L 67.5625 -65.109375 L 73.390625 0 Z M 58.5625 0 "/></g></g></g><path stroke-linecap="butt" transform="matrix(0.749314, 0, 0, 0.749314, 408.141542, 158.479884)" fill="none" stroke-linejoin="miter" d="M 60.402994 5.109621 L 60.402994 22.490105 L 29.953262 22.490105 L 29.953262 39.745474 L 58.062311 39.745474 L 58.062311 57.13117 L 29.953262 57.13117 L 29.953262 92.001612 L 10.153899 92.001612 L 10.153899 5.109621 Z M 94.522749 5.109621 L 94.522749 92.001612 L 74.718173 92.001612 L 74.718173 5.109621 Z M 131.806857 5.109621 L 131.806857 74.615916 L 161.714426 74.615916 L 161.714426 92.001612 L 112.007494 92.001612 L 112.007494 5.109621 Z M 196.162607 5.109621 L 196.162607 92.001612 L 176.363244 92.001612 L 176.363244 5.109621 Z M 213.647352 5.109621 L 245.353441 5.109621 C 254.200076 5.109621 261.357666 7.387747 266.82621 11.949211 C 272.315607 16.510676 275.057699 23.141742 275.057699 31.852836 C 275.057699 40.558718 272.279115 47.393095 266.727161 52.345542 C 261.185633 57.303203 254.064536 59.779426 245.353441 59.779426 L 233.451929 59.779426 L 233.451929 92.001612 L 213.647352 92.001612 Z M 233.451929 43.962873 L 239.029948 43.962873 C 243.450659 43.962873 247.089405 43.071433 249.930545 41.288552 C 252.776899 39.490032 254.200076 36.560268 254.200076 32.494048 C 254.200076 28.344419 252.776899 25.378163 249.930545 23.595282 C 247.089405 21.796762 243.450659 20.894895 239.029948 20.894895 L 233.451929 20.894895 Z M 308.442407 57.13117 L 308.442407 92.001612 L 288.643044 92.001612 L 288.643044 5.109621 L 308.442407 5.109621 L 308.442407 39.745474 L 336.447193 39.745474 L 336.447193 5.109621 L 356.246556 5.109621 L 356.246556 92.001612 L 336.447193 92.001612 L 336.447193 57.13117 Z M 439.364261 3.514412 C 444.061267 3.514412 448.65401 4.197328 453.147704 5.568374 C 457.657038 6.944633 460.998636 8.294827 463.177713 9.634594 L 466.336853 11.740687 L 458.313889 27.531175 C 457.683103 27.119339 456.796876 26.58239 455.665633 25.9099 C 454.550029 25.242623 452.454361 24.351182 449.368205 23.235578 C 446.282048 22.104335 443.399203 21.54132 440.724881 21.54132 C 437.435413 21.54132 434.886206 22.245089 433.087686 23.647413 C 431.304805 25.054951 430.413364 26.947307 430.413364 29.329695 C 430.413364 30.533922 430.835626 31.639099 431.674935 32.650441 C 432.514245 33.661783 433.953061 34.751321 435.996597 35.913843 C 438.03492 37.065939 439.828227 37.988658 441.371306 38.692427 C 442.914384 39.396196 445.296772 40.449242 448.518469 41.85678 C 454.143407 44.254807 458.934248 47.512996 462.890993 51.626134 C 466.86859 55.723632 468.859995 60.368507 468.859995 65.56597 C 468.859995 70.554909 467.958128 74.907849 466.159608 78.630005 C 464.376727 82.346947 461.916142 85.261071 458.777855 87.372377 C 455.660419 89.478471 452.204133 91.042401 448.414207 92.053743 C 444.624282 93.065085 440.52157 93.570756 436.095646 93.570756 C 432.310934 93.570756 428.588779 93.184987 424.934394 92.413447 C 421.285222 91.641908 418.225131 90.677484 415.75412 89.530602 C 413.303962 88.36808 411.093607 87.22641 409.123054 86.110807 C 407.168141 84.979563 405.729324 84.030779 404.801392 83.25924 L 403.440772 82.101931 L 413.340454 65.461708 C 414.179763 66.165477 415.337072 67.06213 416.81238 68.162095 C 418.287688 69.241207 420.899452 70.700876 424.652886 72.535888 C 428.427172 74.350047 431.753132 75.257127 434.630764 75.257127 C 442.982154 75.257127 447.152636 72.415986 447.152636 66.723279 C 447.152636 65.524265 446.855489 64.413874 446.255983 63.402532 C 445.656476 62.39119 444.598216 61.379849 443.09163 60.368507 C 441.585043 59.341526 440.245276 58.528282 439.082754 57.928775 C 437.930658 57.329268 436.038302 56.416975 433.395259 55.202322 C 430.773068 53.966817 428.828581 53.033672 427.561797 52.397673 C 422.296564 49.791122 418.225131 46.543359 415.347498 42.654385 C 412.464653 38.760197 411.025836 34.568863 411.025836 30.075169 C 411.025836 22.276367 413.903469 15.900743 419.663947 10.943083 C 425.424425 5.990635 431.992934 3.514412 439.364261 3.514412 Z M 527.100775 5.109621 L 562.174528 92.001612 L 540.910283 92.001612 L 534.482528 74.615916 L 501.410606 74.615916 L 494.982851 92.001612 L 473.692541 92.001612 L 508.766294 5.109621 Z M 527.741987 57.235432 L 518.050829 31.957099 L 517.842305 31.957099 L 508.151148 57.235432 Z M 590.194954 38.077281 L 590.194954 92.001612 L 570.395591 92.001612 L 570.395591 5.109621 L 590.194954 5.109621 L 624.731757 59.033953 L 624.940281 59.033953 L 624.940281 5.109621 L 644.76571 5.109621 L 644.76571 92.001612 L 624.940281 92.001612 L 590.403478 38.077281 Z M 662.240029 5.109621 L 687.419314 5.109621 C 699.487646 5.109621 709.804376 9.233185 718.379929 17.4751 C 726.95027 25.722228 731.23544 36.05981 731.23544 48.487846 C 731.23544 60.988866 726.965909 71.368153 718.43206 79.63092 C 709.892999 87.878048 699.555416 92.001612 687.419314 92.001612 L 662.240029 92.001612 Z M 682.044605 74.308343 L 685.104697 74.308343 C 692.31963 74.308343 698.226075 71.873824 702.818819 67.004786 C 707.432414 62.120109 709.773097 55.979075 709.840868 48.592108 C 709.840868 41.220782 707.541889 35.08496 702.949146 30.179431 C 698.356403 25.258262 692.408253 22.797678 685.104697 22.797678 L 682.044605 22.797678 Z M 776.834447 3.514412 C 781.531452 3.514412 786.129408 4.197328 790.61789 5.568374 C 795.127223 6.944633 798.468822 8.294827 800.647899 9.634594 L 803.812252 11.740687 L 795.789287 27.531175 C 795.153289 27.119339 794.272274 26.58239 793.141031 25.9099 C 792.025427 25.242623 789.924547 24.351182 786.83839 23.235578 C 783.752234 22.104335 780.874601 21.54132 778.20028 21.54132 C 774.905599 21.54132 772.361605 22.245089 770.563085 23.647413 C 768.77499 25.054951 767.88355 26.947307 767.88355 29.329695 C 767.88355 30.533922 768.305811 31.639099 769.145121 32.650441 C 769.98443 33.661783 771.42846 34.751321 773.466783 35.913843 C 775.505106 37.065939 777.298413 37.988658 778.841491 38.692427 C 780.38457 39.396196 782.766957 40.449242 785.988655 41.85678 C 791.613592 44.254807 796.404433 47.512996 800.366391 51.626134 C 804.343988 55.723632 806.33018 60.368507 806.33018 65.56597 C 806.33018 70.554909 805.428314 74.907849 803.629793 78.630005 C 801.846912 82.346947 799.386328 85.261071 796.24804 87.372377 C 793.130605 89.478471 789.674318 91.042401 785.884393 92.053743 C 782.09968 93.065085 777.991756 93.570756 773.571045 93.570756 C 769.781119 93.570756 766.058964 93.184987 762.409792 92.413447 C 758.755408 91.641908 755.695316 90.677484 753.229519 89.530602 C 750.779361 88.36808 748.563792 87.22641 746.59324 86.110807 C 744.638326 84.979563 743.19951 84.030779 742.271578 83.25924 L 740.910958 82.101931 L 750.810639 65.461708 C 751.649949 66.165477 752.807258 67.06213 754.282566 68.162095 C 755.757874 69.241207 758.369638 70.700876 762.128285 72.535888 C 765.897358 74.350047 769.223317 75.257127 772.10095 75.257127 C 780.45234 75.257127 784.628035 72.415986 784.628035 66.723279 C 784.628035 65.524265 784.325675 64.413874 783.726168 63.402532 C 783.126661 62.39119 782.073615 61.379849 780.561815 60.368507 C 779.055228 59.341526 777.715461 58.528282 776.552939 57.928775 C 775.406057 57.329268 773.508487 56.416975 770.870658 55.202322 C 768.248467 53.966817 766.298767 53.033672 765.031983 52.397673 C 759.766749 49.791122 755.695316 46.543359 752.817684 42.654385 C 749.934838 38.760197 748.496022 34.568863 748.496022 30.075169 C 748.496022 22.276367 751.378868 15.900743 757.139346 10.943083 C 762.899824 5.990635 769.46312 3.514412 776.834447 3.514412 Z M 814.968291 22.490105 L 814.968291 5.109621 L 876.039786 5.109621 L 876.039786 22.490105 L 855.416753 22.490105 L 855.416753 92.001612 L 835.61739 92.001612 L 835.61739 22.490105 Z M 888.066413 5.109621 L 919.131291 5.109621 C 927.49832 5.109621 934.311845 7.335616 939.571865 11.792818 C 944.837099 16.250021 947.469715 22.620432 947.469715 30.898839 C 947.469715 37.295315 945.86408 42.654385 942.658022 46.970834 C 939.472816 51.292495 935.140728 54.326521 929.672184 56.078123 L 959.579752 92.001612 L 934.405681 92.001612 L 907.865776 57.66812 L 907.865776 92.001612 L 888.066413 92.001612 Z M 907.865776 43.6553 L 910.180394 43.6553 C 911.999767 43.6553 913.542845 43.618809 914.809629 43.551038 C 916.076413 43.483268 917.520442 43.243465 919.131291 42.83163 C 920.742139 42.404156 922.034989 41.804649 923.015052 41.03311 C 924.005541 40.245931 924.855277 39.114688 925.559046 37.63938 C 926.262815 36.164072 926.612093 34.381191 926.612093 32.290737 C 926.612093 30.179431 926.262815 28.391336 925.559046 26.916028 C 924.855277 25.44072 924.005541 24.31469 923.015052 23.548364 C 922.034989 22.776825 920.742139 22.172105 919.131291 21.744631 C 917.520442 21.317156 916.076413 21.066928 914.809629 20.999157 C 913.542845 20.931387 911.999767 20.894895 910.180394 20.894895 L 907.865776 20.894895 Z M 988.846109 -21.326021 C 990.748892 -23.228804 993.032231 -24.182801 995.6857 -24.182801 C 998.360021 -24.182801 1000.648573 -23.228804 1002.551356 -21.326021 C 1004.454138 -19.444091 1005.408136 -17.160753 1005.408136 -14.486431 C 1005.408136 -11.812109 1004.454138 -9.523557 1002.551356 -7.620775 C 1000.648573 -5.733632 998.360021 -4.79006 995.6857 -4.79006 C 993.032231 -4.79006 990.748892 -5.733632 988.846109 -7.620775 C 986.958966 -9.523557 986.020608 -11.812109 986.020608 -14.486431 C 986.020608 -17.160753 986.958966 -19.444091 988.846109 -21.326021 Z M 1013.81687 -21.326021 C 1015.719652 -23.228804 1017.997778 -24.182801 1020.65646 -24.182801 C 1023.330782 -24.182801 1025.608908 -23.228804 1027.496051 -21.326021 C 1029.398833 -19.444091 1030.352831 -17.160753 1030.352831 -14.486431 C 1030.352831 -11.812109 1029.398833 -9.523557 1027.496051 -7.620775 C 1025.608908 -5.733632 1023.330782 -4.79006 1020.65646 -4.79006 C 1017.997778 -4.79006 1015.719652 -5.733632 1013.81687 -7.620775 C 1011.929727 -9.523557 1010.986155 -11.812109 1010.986155 -14.486431 C 1010.986155 -17.160753 1011.929727 -19.444091 1013.81687 -21.326021 Z M 964.417511 48.487846 C 964.417511 35.924269 968.702682 25.284327 977.273022 16.578446 C 985.848575 7.867352 996.165305 3.514412 1008.23885 3.514412 C 1020.390592 3.514412 1030.712535 7.851713 1039.199466 16.526315 C 1047.702036 25.200918 1051.950714 35.856499 1051.950714 48.487846 C 1051.950714 61.207816 1047.769806 71.910316 1039.402777 80.584918 C 1031.0566 89.238668 1020.666887 93.570756 1008.23885 93.570756 C 995.53452 93.570756 985.050971 89.27516 976.788203 80.683967 C 968.541075 72.077135 964.417511 61.34857 964.417511 48.487846 Z M 985.812084 48.487846 C 985.812084 53.06495 986.515853 57.235432 987.92339 60.988866 C 989.325715 64.7423 991.781086 67.922292 995.273865 70.528843 C 998.792709 73.114542 1003.109158 74.412605 1008.23885 74.412605 C 1015.610177 74.412605 1021.172558 71.88425 1024.925991 66.822328 C 1028.679425 61.765618 1030.556142 55.655862 1030.556142 48.487846 C 1030.556142 41.408453 1028.648146 35.324763 1024.821729 30.231562 C 1021.000525 25.138361 1015.469423 22.594367 1008.23885 22.594367 C 1001.070835 22.594367 995.539733 25.138361 991.650758 30.231562 C 987.756571 35.324763 985.812084 41.408453 985.812084 48.487846 Z M 1137.367397 92.001612 L 1133.25426 40.490947 L 1132.738163 40.490947 L 1114.945844 91.485515 L 1103.138167 91.485515 L 1085.345848 40.490947 L 1084.803686 40.490947 L 1080.716613 92.001612 L 1060.91725 92.001612 L 1068.705625 5.109621 L 1089.766559 5.109621 L 1109.028973 55.228388 L 1128.317452 5.109621 L 1149.378385 5.109621 L 1157.16676 92.001612 Z M 1137.367397 92.001612 " stroke="#000000" stroke-width="3.94995" stroke-opacity="1" stroke-miterlimit="4"/><path fill="#26dfd0" d="M 586.183594 267.296875 L 1101.667969 267.296875 C 1105.15625 267.296875 1108.496094 268.683594 1110.960938 271.144531 C 1113.425781 273.609375 1114.8125 276.953125 1114.8125 280.4375 L 1114.8125 306.710938 C 1114.8125 310.195312 1113.425781 313.539062 1110.960938 316 C 1108.496094 318.464844 1105.15625 319.851562 1101.667969 319.851562 L 586.183594 319.851562 C 578.921875 319.851562 573.039062 313.96875 573.039062 306.710938 L 573.039062 280.4375 C 573.039062 273.179688 578.921875 267.296875 586.183594 267.296875 " fill-opacity="1" fill-rule="nonzero"/><g fill="#000000" fill-opacity="1"><g transform="translate(587.340936, 305.563068)"><g><path d="M 17.457031 -19.429688 L 17.457031 -23.777344 L 1.867188 -23.777344 L 1.867188 0 L 6.386719 0 L 6.386719 -9.714844 L 15.183594 -9.714844 L 15.183594 -14.027344 L 6.386719 -14.027344 L 6.386719 -19.429688 Z M 17.457031 -19.429688 "/></g></g></g><g fill="#000000" fill-opacity="1"><g transform="translate(607.720103, 305.563068)"><g><path d="M 15.386719 -23.777344 L 15.386719 -9.441406 C 15.386719 -6.25 13.621094 -4.28125 10.800781 -4.28125 C 7.949219 -4.28125 6.214844 -6.25 6.214844 -9.441406 L 6.214844 -23.777344 L 1.699219 -23.777344 L 1.699219 -9.339844 C 1.699219 -3.398438 5.265625 0.273438 10.800781 0.273438 C 16.304688 0.273438 19.90625 -3.398438 19.90625 -9.339844 L 19.90625 -23.777344 Z M 15.386719 -23.777344 "/></g></g></g><g fill="#000000" fill-opacity="1"><g transform="translate(630.884409, 305.563068)"><g><path d="M 6.386719 -4.3125 L 6.386719 -23.777344 L 1.867188 -23.777344 L 1.867188 0 L 16.132812 0 L 16.132812 -4.3125 Z M 6.386719 -4.3125 "/></g></g></g><g fill="#000000" fill-opacity="1"><g transform="translate(649.599296, 305.563068)"><g><path d="M 6.386719 -4.3125 L 6.386719 -23.777344 L 1.867188 -23.777344 L 1.867188 0 L 16.132812 0 L 16.132812 -4.3125 Z M 6.386719 -4.3125 "/></g></g></g><g fill="#000000" fill-opacity="1"><g transform="translate(668.314187, 305.563068)"><g><path d="M 10.734375 -14.300781 C 6.996094 -15.453125 6.113281 -16.167969 6.113281 -17.289062 C 6.113281 -18.851562 7.847656 -19.53125 9.75 -19.496094 C 11.480469 -19.460938 13.417969 -18.648438 13.722656 -17.152344 L 17.730469 -18.648438 C 17.050781 -22.042969 13.347656 -23.980469 9.714844 -23.980469 C 3.601562 -23.980469 1.324219 -20.242188 1.324219 -17.117188 C 1.324219 -13.621094 3.566406 -11.546875 9.035156 -9.917969 C 12.90625 -8.761719 14.0625 -8.152344 14.0625 -6.726562 C 14.0625 -5.265625 12.566406 -4.179688 9.816406 -4.179688 C 7.335938 -4.179688 5.265625 -5.296875 4.824219 -7.097656 L 0.679688 -5.503906 C 1.359375 -2.070312 5.570312 0.40625 10.222656 0.40625 C 16.132812 0.40625 18.886719 -2.953125 18.886719 -6.894531 C 18.886719 -11.3125 15.421875 -12.875 10.734375 -14.300781 Z M 10.734375 -14.300781 "/></g></g></g><g fill="#000000" fill-opacity="1"><g transform="translate(689.610412, 305.563068)"><g><path d="M 18.308594 -23.777344 L 1.019531 -23.777344 L 1.019531 -19.429688 L 7.40625 -19.429688 L 7.40625 0 L 11.921875 0 L 11.921875 -19.429688 L 18.308594 -19.429688 Z M 18.308594 -23.777344 "/></g></g></g><g fill="#000000" fill-opacity="1"><g transform="translate(710.499057, 305.563068)"><g><path d="M 17.222656 0 L 22.351562 0 L 13.65625 -23.777344 L 9.035156 -23.777344 L 0.339844 0 L 5.46875 0 L 7.304688 -5.367188 L 15.351562 -5.367188 Z M 8.832031 -9.679688 L 11.34375 -16.984375 L 13.859375 -9.679688 Z M 8.832031 -9.679688 "/></g></g></g><g fill="#000000" fill-opacity="1"><g transform="translate(734.750238, 305.563068)"><g><path d="M 12.535156 -4.28125 C 8.21875 -4.28125 5.636719 -7.539062 5.636719 -11.855469 C 5.636719 -16.203125 8.21875 -19.460938 12.535156 -19.460938 C 15.148438 -19.460938 17.117188 -18.273438 18.308594 -16.371094 L 22.382812 -18.410156 C 20.449219 -21.804688 16.914062 -23.980469 12.535156 -23.980469 C 5.707031 -23.980469 1.019531 -18.679688 1.019531 -11.855469 C 1.019531 -5.027344 5.707031 0.273438 12.535156 0.273438 C 16.914062 0.273438 20.449219 -1.9375 22.382812 -5.296875 L 18.308594 -7.335938 C 17.117188 -5.433594 15.148438 -4.28125 12.535156 -4.28125 Z M 12.535156 -4.28125 "/></g></g></g><g fill="#000000" fill-opacity="1"><g transform="translate(759.375037, 305.563068)"><g><path d="M 15.351562 0 L 20.890625 0 L 11.480469 -13.214844 L 20.378906 -23.777344 L 14.46875 -23.777344 L 6.386719 -14.199219 L 6.386719 -23.777344 L 1.867188 -23.777344 L 1.867188 0 L 6.386719 0 L 6.386719 -7.199219 L 8.457031 -9.644531 Z M 15.351562 0 "/></g></g></g><g fill="#000000" fill-opacity="1"><g transform="translate(782.165722, 305.563068)"><g/></g></g><g fill="#000000" fill-opacity="1"><g transform="translate(792.559184, 305.563068)"><g><path d="M 1.625 -12.40625 C 1.625 -14.300781 2.082031 -15.648438 3 -16.453125 C 3.914062 -17.253906 5.046875 -17.65625 6.390625 -17.65625 C 7.242188 -17.65625 8.03125 -17.476562 8.75 -17.125 C 9.476562 -16.78125 10.054688 -16.222656 10.484375 -15.453125 C 10.921875 -14.679688 11.140625 -13.664062 11.140625 -12.40625 C 11.140625 -10.519531 10.675781 -9.171875 9.75 -8.359375 C 8.820312 -7.546875 7.703125 -7.140625 6.390625 -7.140625 C 5.046875 -7.140625 3.914062 -7.546875 3 -8.359375 C 2.082031 -9.171875 1.625 -10.519531 1.625 -12.40625 Z M 1.625 -12.40625 "/></g></g></g><g fill="#000000" fill-opacity="1"><g transform="translate(806.892577, 305.563068)"><g/></g></g><g fill="#000000" fill-opacity="1"><g transform="translate(817.286037, 305.563068)"><g><path d="M 9.511719 -23.777344 C 9.511719 -23.777344 1.867188 -23.777344 1.867188 -23.777344 L 1.867188 0 C 1.867188 0 9.511719 0 9.511719 0 C 17.390625 0 21.976562 -4.925781 21.976562 -11.886719 C 21.976562 -18.851562 17.390625 -23.777344 9.511719 -23.777344 Z M 9.410156 -4.3125 L 6.386719 -4.3125 L 6.386719 -19.429688 L 9.410156 -19.429688 C 14.402344 -19.429688 17.457031 -16.40625 17.457031 -11.886719 C 17.457031 -7.335938 14.402344 -4.3125 9.410156 -4.3125 Z M 9.410156 -4.3125 "/></g></g></g><g fill="#000000" fill-opacity="1"><g transform="translate(841.842897, 305.563068)"><g><path d="M 6.386719 -4.3125 L 6.386719 -9.714844 L 16.40625 -9.714844 L 16.40625 -14.027344 L 6.386719 -14.027344 L 6.386719 -19.429688 L 17.457031 -19.429688 L 17.457031 -23.777344 L 1.867188 -23.777344 L 1.867188 0 L 17.664062 0 L 17.664062 -4.3125 Z M 6.386719 -4.3125 "/></g></g></g><g fill="#000000" fill-opacity="1"><g transform="translate(862.425865, 305.563068)"><g><path d="M 10.734375 -14.300781 C 6.996094 -15.453125 6.113281 -16.167969 6.113281 -17.289062 C 6.113281 -18.851562 7.847656 -19.53125 9.75 -19.496094 C 11.480469 -19.460938 13.417969 -18.648438 13.722656 -17.152344 L 17.730469 -18.648438 C 17.050781 -22.042969 13.347656 -23.980469 9.714844 -23.980469 C 3.601562 -23.980469 1.324219 -20.242188 1.324219 -17.117188 C 1.324219 -13.621094 3.566406 -11.546875 9.035156 -9.917969 C 12.90625 -8.761719 14.0625 -8.152344 14.0625 -6.726562 C 14.0625 -5.265625 12.566406 -4.179688 9.816406 -4.179688 C 7.335938 -4.179688 5.265625 -5.296875 4.824219 -7.097656 L 0.679688 -5.503906 C 1.359375 -2.070312 5.570312 0.40625 10.222656 0.40625 C 16.132812 0.40625 18.886719 -2.953125 18.886719 -6.894531 C 18.886719 -11.3125 15.421875 -12.875 10.734375 -14.300781 Z M 10.734375 -14.300781 "/></g></g></g><g fill="#000000" fill-opacity="1"><g transform="translate(883.722084, 305.563068)"><g><path d="M 1.867188 -23.777344 L 1.867188 0 L 6.386719 0 L 6.386719 -23.777344 Z M 1.867188 -23.777344 "/></g></g></g><g fill="#000000" fill-opacity="1"><g transform="translate(893.538146, 305.563068)"><g><path d="M 12.804688 -12.839844 L 12.804688 -9.203125 L 18.035156 -9.203125 L 18.035156 -6.554688 C 16.847656 -5.09375 15.046875 -4.28125 12.738281 -4.28125 C 8.390625 -4.28125 5.808594 -7.539062 5.808594 -11.855469 C 5.808594 -16.203125 8.390625 -19.460938 12.738281 -19.460938 C 15.351562 -19.460938 17.324219 -18.273438 18.476562 -16.371094 L 22.585938 -18.410156 C 20.617188 -21.804688 17.117188 -23.980469 12.738281 -23.980469 C 5.910156 -23.980469 1.1875 -18.679688 1.1875 -11.855469 C 1.1875 -5.027344 5.910156 0.273438 12.738281 0.273438 C 17.117188 0.273438 20.617188 -1.867188 22.585938 -5.265625 L 22.585938 -12.839844 Z M 12.804688 -12.839844 "/></g></g></g><g fill="#000000" fill-opacity="1"><g transform="translate(919.385679, 305.563068)"><g><path d="M 15.863281 -23.777344 L 15.863281 -8.355469 L 6.285156 -23.777344 L 1.867188 -23.777344 L 1.867188 0 L 6.386719 0 L 6.386719 -15.421875 L 15.929688 0 L 20.378906 0 L 20.378906 -23.777344 Z M 15.863281 -23.777344 "/></g></g></g><g fill="#000000" fill-opacity="1"><g transform="translate(943.195305, 305.563068)"><g/></g></g><g fill="#000000" fill-opacity="1"><g transform="translate(953.588768, 305.563068)"><g><path d="M 1.625 -12.40625 C 1.625 -14.300781 2.082031 -15.648438 3 -16.453125 C 3.914062 -17.253906 5.046875 -17.65625 6.390625 -17.65625 C 7.242188 -17.65625 8.03125 -17.476562 8.75 -17.125 C 9.476562 -16.78125 10.054688 -16.222656 10.484375 -15.453125 C 10.921875 -14.679688 11.140625 -13.664062 11.140625 -12.40625 C 11.140625 -10.519531 10.675781 -9.171875 9.75 -8.359375 C 8.820312 -7.546875 7.703125 -7.140625 6.390625 -7.140625 C 5.046875 -7.140625 3.914062 -7.546875 3 -8.359375 C 2.082031 -9.171875 1.625 -10.519531 1.625 -12.40625 Z M 1.625 -12.40625 "/></g></g></g><g fill="#000000" fill-opacity="1"><g transform="translate(967.922161, 305.563068)"><g/></g></g><g fill="#000000" fill-opacity="1"><g transform="translate(978.315621, 305.563068)"><g><path d="M 15.863281 -23.777344 L 15.863281 -8.355469 L 6.285156 -23.777344 L 1.867188 -23.777344 L 1.867188 0 L 6.386719 0 L 6.386719 -15.421875 L 15.929688 0 L 20.378906 0 L 20.378906 -23.777344 Z M 15.863281 -23.777344 "/></g></g></g><g fill="#000000" fill-opacity="1"><g transform="translate(1002.125271, 305.563068)"><g><path d="M 17.222656 0 L 22.351562 0 L 13.65625 -23.777344 L 9.035156 -23.777344 L 0.339844 0 L 5.46875 0 L 7.304688 -5.367188 L 15.351562 -5.367188 Z M 8.832031 -9.679688 L 11.34375 -16.984375 L 13.859375 -9.679688 Z M 8.832031 -9.679688 "/></g></g></g><g fill="#000000" fill-opacity="1"><g transform="translate(1026.376441, 305.563068)"><g><path d="M 18.308594 -23.777344 L 1.019531 -23.777344 L 1.019531 -19.429688 L 7.40625 -19.429688 L 7.40625 0 L 11.921875 0 L 11.921875 -19.429688 L 18.308594 -19.429688 Z M 18.308594 -23.777344 "/></g></g></g><g fill="#000000" fill-opacity="1"><g transform="translate(1047.265075, 305.563068)"><g><path d="M 1.867188 -23.777344 L 1.867188 0 L 6.386719 0 L 6.386719 -23.777344 Z M 1.867188 -23.777344 "/></g></g></g><g fill="#000000" fill-opacity="1"><g transform="translate(1057.081114, 305.563068)"><g><path d="M 17.117188 -23.777344 L 11.242188 -6.792969 L 5.367188 -23.777344 L 0.339844 -23.777344 L 8.933594 0 L 13.550781 0 L 22.144531 -23.777344 Z M 17.117188 -23.777344 "/></g></g></g><g fill="#000000" fill-opacity="1"><g transform="translate(1081.128491, 305.563068)"><g><path d="M 6.386719 -4.3125 L 6.386719 -9.714844 L 16.40625 -9.714844 L 16.40625 -14.027344 L 6.386719 -14.027344 L 6.386719 -19.429688 L 17.457031 -19.429688 L 17.457031 -23.777344 L 1.867188 -23.777344 L 1.867188 0 L 17.664062 0 L 17.664062 -4.3125 Z M 6.386719 -4.3125 "/></g></g></g></svg>